<svg width="45" height="44" viewBox="0 0 45 44" fill="none" xmlns="http://www.w3.org/2000/svg">
<path d="M1.59004 0.350558L3.22296 1.70995V7.83693H12.05L13.2504 9.34822L12.0461 10.7855H3.22296V16.6437L1.59004 17.9992L0 16.6437V1.70605L1.59004 0.350558ZM6.36407 15.7907H13.0945L14.2208 17.2241L13.0204 18.7393H6.36407L5.27676 17.341L6.36407 15.7907ZM6.5979 0H13.0165L14.2169 1.5113L13.0165 2.94858H6.67584L5.39368 1.55414L6.5979 0ZM42.37 2.90963L43.808 4.45988L42.37 6.01402H20.6355L19.2364 4.45988L20.6355 2.90963H42.37ZM18.0712 9.34822L19.4274 8.18359L20.7875 9.34822V11.0582C20.7875 13.9288 21.563 16.2932 25.0198 16.2932H25.7174C28.8234 16.2932 30.5304 14.1976 30.5304 10.9374V9.30927L31.8515 8.14464L33.2116 9.27032V11.0543C33.2116 13.9639 34.0651 16.1374 37.405 16.1374H37.9857C41.2476 16.1374 41.8283 13.6523 41.8672 10.9374V9.19242L43.1884 8.10569L44.5836 9.23137V10.9764C44.5446 14.739 43.5352 19.047 38.1026 19.047H37.5219C34.299 19.047 32.553 17.6097 31.8554 15.8258C31.0409 17.6487 28.8663 19.2418 25.9161 19.2418H25.2147C19.6261 19.2418 18.114 15.8686 18.0751 11.1322V9.34822H18.0712ZM29.1742 37.4357L28.3986 35.3402L30.4174 34.7598L37.5219 37.9772V31.3438L38.96 30.1402L40.4331 31.3438V39.3755L43.0715 40.5791L43.808 42.5188L41.7503 43.255L29.1742 37.4357ZM41.8283 23.2732L43.7691 24.1652L43.1494 26.1439L25.6784 34.2534L23.5817 33.4394L24.4352 31.4217L41.8283 23.2732ZM16.6214 34.3313L18.3284 35.7297C18.1725 40.657 13.9402 43.255 8.9362 43.255H8.42957C5.94318 43.255 3.03589 42.3241 1.17305 40.5401L1.36401 38.5614L3.18788 38.3277C4.54799 39.4923 6.44981 40.3064 8.23471 40.3064H8.78031C12.1592 40.3064 14.7586 38.912 15.0314 35.6128L16.6214 34.3313ZM15.0275 31.1101C14.8716 27.6941 12.3111 26.3386 8.77642 26.3386H8.23081C6.13414 26.3386 4.54409 27.1527 3.18398 28.3173L1.36401 28.0836L1.16915 26.1049C3.03199 24.282 5.6314 23.429 8.35163 23.429H8.89333C13.9402 23.429 18.1725 25.992 18.3245 30.9932L16.6175 32.3526L15.0275 31.1101Z" fill="black"/>
</svg>
